<svg width="32" height="21" viewBox="0 0 32 21" fill="none" xmlns="http://www.w3.org/2000/svg">
<rect width="32" height="21" fill="white"/>
<path d="M1.28166 0.23068C0.838939 0.429544 0.334084 1.05 0.194278 1.55114C0.0933075 1.90114 0.0777735 3.12613 0.0933075 10.667L0.116608 19.3693L0.334084 19.8227C0.458356 20.0773 0.683599 20.3875 0.838939 20.5227C1.437 21.0318 0.497191 21 16.1943 20.9841L30.4855 20.9602L30.804 20.7852C31.2156 20.5625 31.5652 20.1886 31.7826 19.7352L31.9613 19.3693V10.5398V1.71023L31.7749 1.29659C31.5729 0.835226 31.1224 0.365908 30.7108 0.190908C30.4933 0.0954533 28.2331 0.0795441 16.0234 0.0795441C2.1904 0.0795441 1.5768 0.0874996 1.28166 0.23068ZM30.4312 1.47955C30.8506 1.78182 30.8351 1.36818 30.8351 10.5C30.8351 18.1523 30.8195 18.9716 30.7108 19.2182C30.4545 19.767 31.604 19.7273 16.0389 19.7273C3.58069 19.7273 1.91078 19.7114 1.70884 19.608C1.21952 19.3455 1.24282 19.8545 1.24282 10.4682V1.91705L1.4836 1.63068L1.72438 1.35227H15.9923C28.7923 1.35227 30.2758 1.36818 30.4312 1.47955Z" fill="black"/>
<path d="M3.0293 8.86932V14.5568H4.15551H5.28172V8.86932V3.18182H4.15551H3.0293V8.86932Z" fill="black"/>
<path d="M6.44678 8.86932V14.5568H6.67979H6.9128V8.86932V3.18182H6.67979H6.44678V8.86932Z" fill="black"/>
<path d="M7.68945 8.86932V14.5568H8.27198H8.8545V8.86932V3.18182H8.27198H7.68945V8.86932Z" fill="black"/>
<path d="M10.2524 8.86932V14.5568H11.6117H12.9709V8.86932V3.18182H11.6117H10.2524V8.86932Z" fill="black"/>
<path d="M14.0583 8.86932V14.5568H14.6409H15.2234V8.86932V3.18182H14.6409H14.0583V8.86932Z" fill="black"/>
<path d="M16.7769 8.86932V14.5568H17.3205H17.8642V8.86932V3.18182H17.3205H16.7769V8.86932Z" fill="black"/>
<path d="M19.1846 8.86932V14.5568H19.7671H20.3496V8.86932V3.18182H19.7671H19.1846V8.86932Z" fill="black"/>
<path d="M21.437 8.86932V14.5568H22.7962H24.1555V8.86932V3.18182H22.7962H21.437V8.86932Z" fill="black"/>
<path d="M25.2429 8.86932V14.5568H25.8254H26.408V8.86932V3.18182H25.8254H25.2429V8.86932Z" fill="black"/>
<path d="M27.6506 8.86932V14.5568H28.2332H28.8157V8.86932V3.18182H28.2332H27.6506V8.86932Z" fill="black"/>
<path d="M9.94189 17.0545V18.6932H10.8196C11.8603 18.6932 12.1322 18.5818 12.272 18.0727C12.3885 17.6989 12.2254 17.2295 11.938 17.0943L11.7516 17.0068L11.9302 16.8239C12.2875 16.458 12.2332 15.9807 11.7982 15.6466C11.6351 15.5273 11.4176 15.4875 10.7652 15.4557L9.94189 15.408V17.0545ZM11.6118 16.0284C11.7205 16.1318 11.806 16.275 11.806 16.3466C11.806 16.4182 11.7205 16.5614 11.6118 16.6648C11.4487 16.8398 11.3555 16.8636 10.8739 16.8636H10.3302V16.3466V15.8295H10.8739C11.3555 15.8295 11.4487 15.8534 11.6118 16.0284ZM11.7283 17.3807C11.8836 17.5239 11.938 17.9295 11.8215 18.1045C11.705 18.2875 11.4099 18.375 10.8817 18.375H10.3302V17.7704V17.158L10.9516 17.1977C11.4021 17.2216 11.6118 17.2773 11.7283 17.3807Z" fill="black"/>
<path d="M15.3787 17.0545V18.6932H15.5728H15.767L15.7515 17.0784C15.7282 15.4795 15.7282 15.4716 15.5573 15.4477L15.3787 15.4239V17.0545Z" fill="black"/>
<path d="M19.0914 15.6784C18.9982 15.7341 18.9516 15.8534 18.9516 16.0682C18.9516 16.3307 18.9283 16.3864 18.7962 16.3864C18.7108 16.3864 18.6409 16.442 18.6409 16.5057C18.6409 16.5693 18.7108 16.625 18.7962 16.625C18.9438 16.625 18.9516 16.6807 18.9516 17.5398C18.9516 18.3511 18.9671 18.4704 19.1069 18.6136C19.1923 18.7011 19.3632 18.7727 19.4953 18.7727C19.6894 18.7727 19.7283 18.7409 19.7283 18.5739C19.7283 18.4148 19.6894 18.375 19.5341 18.375H19.3399V17.5V16.625H19.5341C19.6584 16.625 19.7283 16.5773 19.7283 16.5057C19.7283 16.4341 19.6584 16.3864 19.5341 16.3864C19.3554 16.3864 19.3399 16.3625 19.3399 15.9886C19.3399 15.575 19.3166 15.5432 19.0914 15.6784Z" fill="black"/>
<path d="M13.3671 16.442C12.9788 16.6489 12.7924 16.9511 12.7535 17.4443C12.7147 17.9693 12.8933 18.4068 13.2351 18.6216C13.7166 18.9239 14.4933 18.7409 14.7419 18.2636C14.9205 17.9216 14.9127 17.1182 14.7341 16.8398C14.4312 16.3705 13.8331 16.1875 13.3671 16.442ZM14.1438 16.7045C14.5788 16.9511 14.6564 17.9216 14.2603 18.2716C13.9496 18.542 13.5768 18.5182 13.3205 18.2C13.1341 17.9693 13.1108 17.8977 13.1419 17.4682C13.1729 17.0784 13.2118 16.967 13.3904 16.808C13.6157 16.6091 13.8953 16.5773 14.1438 16.7045Z" fill="black"/>
<path d="M16.8934 16.4182C16.5672 16.5693 16.4196 16.7682 16.3108 17.1739C16.1477 17.7943 16.3575 18.4307 16.8079 18.6455C17.305 18.8841 17.9342 18.7568 18.206 18.3591C18.3691 18.1284 18.3614 18.0807 18.1749 18.017C18.0584 17.9773 17.9652 18.0329 17.8177 18.208C17.4837 18.6216 16.94 18.5182 16.7303 18.017C16.6681 17.8659 16.6215 17.7227 16.6215 17.6989C16.6215 17.675 17.0254 17.6591 17.5147 17.6591H18.4157L18.3614 17.3568C18.2449 16.7204 17.9575 16.4023 17.4215 16.3386C17.2584 16.3227 17.0254 16.3545 16.8934 16.4182ZM17.7478 16.8239C17.8565 16.9273 17.9419 17.0864 17.9419 17.1818C17.9419 17.325 17.8953 17.3409 17.3206 17.3409C16.7458 17.3409 16.6992 17.325 16.6992 17.1818C16.6992 16.9273 17.041 16.625 17.3206 16.625C17.4681 16.625 17.6313 16.6966 17.7478 16.8239Z" fill="black"/>
<path d="M20.5904 16.45C20.1633 16.6727 20.0157 16.9432 20.0079 17.5159C20.0002 18.3114 20.3885 18.7727 21.0642 18.7727C21.7011 18.7727 22.1361 18.2795 22.1361 17.5557C22.1361 16.9989 21.9419 16.633 21.5613 16.458C21.1652 16.275 20.9244 16.267 20.5904 16.45ZM21.5225 16.8557C21.7166 17.0545 21.7477 17.15 21.7477 17.5239C21.7477 17.8818 21.7089 18.0091 21.5458 18.2079C20.9788 18.9079 20.1167 18.0807 20.4351 17.15C20.6215 16.6011 21.1341 16.4659 21.5225 16.8557Z" fill="black"/>
</svg>
