<svg width="26" height="18" viewBox="0 0 26 18" fill="none" xmlns="http://www.w3.org/2000/svg">
<path d="M23.9067 17.1403H2.09339C1.17865 17.1403 0.437012 16.3988 0.437012 15.484V2.51613C0.437012 1.60131 1.17866 0.859665 2.09348 0.859665H23.9067C24.8215 0.859665 25.5632 1.60131 25.5632 2.51613V15.4839C25.5632 16.3988 24.8215 17.1403 23.9067 17.1403Z" fill="#F9F9F9"/>
<path d="M16.6651 14.4109C19.6232 14.4109 22.0212 12.0129 22.0212 9.05487C22.0212 6.0968 19.6232 3.69882 16.6651 3.69882C13.7071 3.69882 11.3091 6.0968 11.3091 9.05487C11.3091 12.0129 13.7071 14.4109 16.6651 14.4109Z" fill="#FFC601"/>
<path d="M9.45272 14.4109C12.4108 14.4109 14.8088 12.0129 14.8088 9.05487C14.8088 6.0968 12.4108 3.69882 9.45272 3.69882C6.49466 3.69882 4.09668 6.0968 4.09668 9.05487C4.09668 12.0129 6.49466 14.4109 9.45272 14.4109Z" fill="#F43735"/>
<path d="M23.9067 17.1403H2.09339C1.17865 17.1403 0.437012 16.3988 0.437012 15.484V2.51613C0.437012 1.60131 1.17866 0.859665 2.09348 0.859665H23.9067C24.8215 0.859665 25.5632 1.60131 25.5632 2.51613V15.4839C25.5632 16.3988 24.8215 17.1403 23.9067 17.1403Z" stroke="#303030" stroke-width="0.8" stroke-miterlimit="10" stroke-linecap="round" stroke-linejoin="round"/>
<path d="M6.18241 8.29077C6.08359 8.86461 5.98486 9.43854 5.88489 10.0193C5.72377 10.0193 5.56552 10.0193 5.39282 10.0193C5.52898 9.21734 5.66433 8.41967 5.80107 7.61435C6.04723 7.61435 6.2893 7.61435 6.56277 7.61435C6.56277 8.08155 6.56277 8.54972 6.56277 9.01806C6.57679 9.01912 6.59098 9.02027 6.605 9.02141C6.69527 8.75813 6.7856 8.49485 6.87586 8.23166C6.93799 8.05024 6.99752 7.86793 7.06445 7.6883C7.07669 7.65528 7.11753 7.61036 7.14615 7.6097C7.38953 7.60343 7.633 7.60604 7.90018 7.60604C7.76508 8.41544 7.63193 9.21285 7.49748 10.0182C7.32487 10.0182 7.15511 10.0182 6.97411 10.0182C7.06429 9.45321 7.15373 8.89152 7.24325 8.32982C7.23575 8.32786 7.22817 8.3259 7.22075 8.32395C7.20216 8.37059 7.18243 8.41673 7.16531 8.46394C6.98943 8.94826 6.81112 9.43168 6.64128 9.9182C6.61013 10.0074 6.56847 10.0376 6.47911 10.0284C6.40858 10.0212 6.33667 10.027 6.24885 10.027C6.23311 9.44399 6.21754 8.86982 6.20197 8.29573C6.19538 8.29411 6.18886 8.2924 6.18241 8.29077Z" fill="white"/>
<path d="M19.9863 8.26982C20.0239 8.04486 20.0595 7.83254 20.0966 7.61052C20.2627 7.61052 20.4284 7.61052 20.6074 7.61052C20.569 7.84828 20.5308 8.08669 20.4919 8.32493C20.4049 8.85761 20.3153 9.38978 20.2328 9.92293C20.2205 10.0027 20.1897 10.0214 20.1174 10.0188C19.9901 10.0144 19.8625 10.0177 19.7268 10.0177C19.7268 9.96224 19.7268 9.91674 19.7268 9.87002C19.6406 9.91772 19.5652 9.97129 19.4815 10.0035C19.1472 10.1317 18.816 9.97691 18.6962 9.62158C18.5327 9.13596 18.6269 8.6845 18.9495 8.29395C19.2426 7.93918 19.6007 7.93528 19.9863 8.26982ZM19.857 8.91402C19.8464 8.84349 19.8431 8.77076 19.8239 8.70268C19.7687 8.50512 19.5656 8.43035 19.401 8.55265C19.3366 8.60052 19.2807 8.67096 19.244 8.74288C19.1584 8.91027 19.1399 9.09233 19.1664 9.2784C19.1836 9.3994 19.2273 9.50401 19.3558 9.54322C19.4811 9.58147 19.6124 9.52977 19.7012 9.40976C19.8098 9.26315 19.8505 9.09495 19.857 8.91402Z" fill="white"/>
<path d="M8.8102 8.78047C8.87315 8.58976 8.81477 8.48662 8.62382 8.4867C8.40677 8.48679 8.1898 8.5132 7.96623 8.5287C7.97545 8.47309 7.98743 8.39971 7.99982 8.32632C8.03717 8.10512 8.03538 8.09159 8.25633 8.06133C8.45593 8.03394 8.66311 8.01519 8.86173 8.0381C9.18469 8.07528 9.37296 8.34035 9.33186 8.66315C9.27626 9.09903 9.21405 9.53419 9.15078 9.96909C9.14637 9.99959 9.11181 10.0482 9.08897 10.0497C8.96251 10.0576 8.83539 10.0535 8.70233 10.0535C8.70233 9.99298 8.70233 9.94675 8.70233 9.91439C8.57701 9.97056 8.45724 10.0462 8.32678 10.0782C7.99942 10.1583 7.74699 9.96917 7.71087 9.63594C7.65787 9.14657 7.95711 8.81692 8.49051 8.78154C8.59731 8.77435 8.70502 8.78047 8.8102 8.78047ZM8.75475 9.19467C8.57097 9.1627 8.41557 9.18586 8.31447 9.25524C8.19322 9.33841 8.15523 9.51893 8.23701 9.62346C8.31552 9.72391 8.48985 9.72032 8.59845 9.61122C8.71106 9.49806 8.75328 9.35668 8.75475 9.19467Z" fill="white"/>
<path d="M17.1599 8.77892C17.2065 8.56612 17.1582 8.48515 16.9585 8.48368C16.7487 8.48206 16.5386 8.5101 16.3147 8.52608C16.3318 8.41756 16.3495 8.28613 16.3755 8.15624C16.38 8.13382 16.4176 8.11001 16.4446 8.10121C16.6949 8.02008 16.9496 7.98013 17.2123 8.03133C17.5304 8.09346 17.7188 8.34712 17.6759 8.66852C17.6153 9.12397 17.5485 9.57862 17.483 10.043C17.3399 10.043 17.1983 10.043 17.0507 10.043C17.0507 9.99257 17.0507 9.94243 17.0507 9.87915C17.0063 9.91348 16.9702 9.94307 16.9324 9.97039C16.7354 10.1133 16.4574 10.137 16.2768 10.0203C16.0566 9.87785 16.0313 9.65534 16.0594 9.42524C16.1064 9.04016 16.394 8.80452 16.8317 8.77981C16.9391 8.77379 17.0471 8.77892 17.1599 8.77892ZM17.1037 9.18782C16.9422 9.16663 16.7971 9.1676 16.6654 9.25109C16.5685 9.31257 16.5226 9.40911 16.5495 9.51722C16.5646 9.57772 16.6141 9.65184 16.6677 9.67589C16.7684 9.72098 16.8706 9.68617 16.9493 9.60357C17.0567 9.49089 17.0932 9.35155 17.1037 9.18782Z" fill="white"/>
<path d="M12.1814 9.23975C12.1524 9.43429 12.2333 9.56434 12.417 9.6166C12.6171 9.67343 12.8134 9.6387 13.0073 9.58138C13.0568 9.5667 13.1058 9.55032 13.1751 9.5283C13.1459 9.68942 13.1216 9.83773 13.0896 9.98433C13.0847 10.0063 13.046 10.0297 13.0188 10.0368C12.7598 10.1043 12.4979 10.1242 12.2361 10.0567C11.9205 9.97535 11.7346 9.76621 11.6804 9.44904C11.6082 9.02628 11.6899 8.63557 11.9695 8.30136C12.1475 8.08855 12.3796 7.98361 12.6602 8.01753C13.1026 8.0711 13.3428 8.41208 13.2816 8.89037C13.2382 9.23053 13.2382 9.23045 12.8956 9.2307C12.6674 9.23078 12.4393 9.23118 12.2113 9.23184C12.2037 9.23184 12.1962 9.23568 12.1814 9.23975ZM12.2225 8.82196C12.3969 8.82196 12.5633 8.82367 12.7296 8.81976C12.7531 8.81927 12.7902 8.7953 12.7969 8.77442C12.8428 8.63165 12.7237 8.46793 12.5734 8.46051C12.3841 8.45115 12.2493 8.58348 12.2225 8.82196Z" fill="white"/>
<path d="M16.1898 7.68464C16.1632 7.85921 16.1375 8.02839 16.1108 8.20459C16.0021 8.16773 15.9004 8.12403 15.7943 8.09892C15.5321 8.03695 15.3063 8.12273 15.1576 8.34662C14.9759 8.62009 14.9266 8.92495 15 9.24204C15.0636 9.51697 15.308 9.65941 15.5876 9.59802C15.6914 9.57535 15.7919 9.53679 15.9035 9.50246C15.8768 9.67173 15.8528 9.83692 15.8223 10.001C15.8178 10.0244 15.783 10.057 15.7594 10.0597C15.5817 10.0801 15.4003 10.1227 15.2257 10.1044C14.8282 10.063 14.582 9.8295 14.49 9.43854C14.3943 9.0325 14.4317 8.63379 14.6037 8.25482C14.8928 7.6172 15.5142 7.39364 16.1898 7.68464Z" fill="white"/>
<path d="M10.6843 8.05473C10.6625 8.20891 10.6434 8.34328 10.6224 8.49135C10.5149 8.48654 10.4125 8.48116 10.3101 8.47749C10.1204 8.47081 10.0214 8.50847 10.0058 8.6046C9.98017 8.7622 10.1124 8.79751 10.2145 8.8404C10.493 8.95756 10.6685 9.15276 10.5755 9.60381C10.5309 9.82078 10.3874 9.95539 10.1784 10.0094C9.88217 10.0858 9.5853 10.0557 9.27612 9.99567C9.29829 9.84581 9.31893 9.70573 9.33858 9.57242C9.51681 9.58897 9.68559 9.60772 9.85477 9.61825C9.90467 9.62134 9.95971 9.60961 10.0058 9.58955C10.1168 9.54119 10.1377 9.41335 10.0433 9.33711C9.97585 9.28264 9.89481 9.2444 9.81768 9.20266C9.53646 9.05011 9.42933 8.84064 9.482 8.54173C9.53361 8.24845 9.71225 8.0809 10.0216 8.03051C10.241 7.9948 10.4568 8.01323 10.6843 8.05473Z" fill="white"/>
<path d="M10.9825 7.77252C11.1613 7.77252 11.3199 7.77252 11.4881 7.77252C11.4743 7.86873 11.4617 7.95777 11.4479 8.0552C11.5306 8.0592 11.6048 8.0627 11.6928 8.06702C11.6726 8.22349 11.6534 8.37229 11.6328 8.53193C11.5458 8.53193 11.4638 8.53193 11.3668 8.53193C11.3348 8.71979 11.304 8.89892 11.2739 9.07822C11.258 9.17272 11.2438 9.26746 11.2282 9.36204C11.1995 9.53531 11.2567 9.5993 11.4341 9.59042C11.4615 9.58912 11.4889 9.58594 11.5318 9.58227C11.5138 9.71362 11.4988 9.83854 11.4776 9.96239C11.4739 9.98408 11.446 10.016 11.4262 10.0183C11.277 10.0361 11.1246 10.0703 10.9779 10.0553C10.7996 10.0371 10.6901 9.89186 10.6979 9.69374C10.7066 9.47114 10.7373 9.24863 10.7716 9.02808C10.8367 8.61029 10.9111 8.19414 10.9825 7.77252Z" fill="white"/>
<path d="M18.144 10.0409C17.9611 10.0409 17.7903 10.0409 17.6138 10.0409C17.7217 9.38 17.8286 8.72609 17.9365 8.06566C18.0972 8.06566 18.2509 8.06566 18.4153 8.06566C18.4047 8.14369 18.3948 8.21764 18.3816 8.31654C18.5197 8.1635 18.636 8.00263 18.8606 8.03867C18.7988 8.23321 18.738 8.4249 18.6764 8.61847C18.5053 8.62409 18.4317 8.66323 18.3822 8.84807C18.3112 9.11355 18.2646 9.38563 18.2104 9.65551C18.1847 9.78385 18.1658 9.91357 18.144 10.0409Z" fill="white"/>
<path d="M13.7975 10.0433C13.6151 10.0433 13.4477 10.0433 13.2681 10.0433C13.3088 9.78727 13.348 9.53663 13.3888 9.28631C13.4506 8.90758 13.5154 8.5295 13.5742 8.15036C13.5848 8.08163 13.606 8.05334 13.6787 8.05635C13.8057 8.06165 13.9331 8.05782 14.0695 8.05782C14.0577 8.14523 14.0475 8.21959 14.0342 8.31768C14.1728 8.163 14.2898 8.00213 14.5146 8.03866C14.4523 8.2341 14.391 8.42619 14.3296 8.61936C14.1631 8.62205 14.0864 8.66135 14.0385 8.83917C13.9661 9.1084 13.9185 9.3844 13.8634 9.65811C13.8382 9.78294 13.8202 9.90916 13.7975 10.0433Z" fill="white"/>
<path d="M4.63794 10.6573H4.72705C4.7074 10.6015 4.68384 10.5477 4.66607 10.4911L4.63794 10.6573Z" fill="white"/>
<path d="M14.2776 6.74044C13.9701 6.08044 13.5276 5.49544 12.9876 5.02294C12.0426 4.17544 10.8126 3.67294 9.45513 3.67294C6.50763 3.67294 4.13013 6.05794 4.13013 8.99794C4.13013 11.9379 6.50763 14.3229 9.45513 14.3229C10.8126 14.3229 12.0426 13.8204 12.9876 12.9729C13.4976 12.5304 13.9176 11.9829 14.2176 11.3679" stroke="#303030" stroke-width="0.8" stroke-miterlimit="10" stroke-linecap="round" stroke-linejoin="round"/>
<path d="M11.6975 6.74044C12.005 6.08044 12.4475 5.49544 12.9875 5.02294C13.9325 4.17544 15.1625 3.67294 16.52 3.67294C19.46 3.67294 21.845 6.05794 21.845 8.99794C21.845 11.9379 19.46 14.3229 16.52 14.3229C15.1625 14.3229 13.9325 13.8204 12.9875 12.9729C12.4775 12.5304 12.0575 11.9829 11.75 11.3679" stroke="#303030" stroke-width="0.8" stroke-miterlimit="10" stroke-linecap="round" stroke-linejoin="round"/>
</svg>
