<svg width="28" height="18" viewBox="0 0 28 18" fill="none" xmlns="http://www.w3.org/2000/svg">
<path d="M24.998 17.1995H3.00217C2.08735 17.1995 1.3457 16.4579 1.3457 15.5431V2.45694C1.3457 1.54212 2.08735 0.800476 3.00217 0.800476H24.998C25.9129 0.800476 26.6545 1.54212 26.6545 2.45694V15.5431C26.6545 16.4579 25.9129 17.1995 24.998 17.1995Z" fill="#F9F9F9"/>
<path d="M8.33089 9.94381C8.33815 9.98262 8.34785 10.0209 8.37909 10.0674C8.92007 8.70097 9.46089 7.33477 10.001 5.97044C10.5502 5.97044 11.0936 5.97044 11.6502 5.97044C11.6204 6.04586 11.5956 6.11223 11.5682 6.17771C10.762 8.10194 9.95499 10.0261 9.15056 11.9511C9.11974 12.0245 9.08304 12.0524 9.00078 12.0518C8.51361 12.0475 8.02611 12.0484 7.53885 12.0513C7.46539 12.052 7.43433 12.0338 7.41468 11.9573C7.00766 10.3728 6.5937 8.79001 6.19043 7.2048" fill="#0052CC"/>
<path d="M6.1906 7.2048C6.1182 6.92033 5.97535 6.72375 5.704 6.60291C5.25702 6.40413 4.79244 6.2656 4.31782 6.15488C4.29703 6.1499 4.27697 6.14175 4.25659 6.13514C4.25659 6.12055 4.25659 6.10629 4.25659 6.09168C4.27119 5.97216 4.34653 5.96123 4.45146 5.96172C5.27814 5.96612 6.10491 5.96424 6.93167 5.96441C7.3422 5.96441 7.62382 6.1932 7.7003 6.59671C7.91188 7.71211 8.12102 8.828 8.33106 9.9438" fill="#FFC601"/>
<path d="M17.2987 5.85353C17.4755 5.88256 17.6533 5.9053 17.8282 5.94298C18.0003 5.98015 18.1697 6.03144 18.3398 6.07857C18.3809 6.08998 18.4199 6.10858 18.4681 6.12716C18.3768 6.55261 18.2867 6.97407 18.1965 7.39551C17.9894 7.3302 17.7913 7.25592 17.587 7.20619C17.2194 7.11691 16.8442 7.07859 16.474 7.17822C16.3401 7.21434 16.2054 7.28976 16.1006 7.38125C15.923 7.53609 15.9228 7.76242 16.0942 7.92411C16.2109 8.03426 16.3479 8.12631 16.4865 8.20842C16.7626 8.37157 17.0525 8.51157 17.3249 8.68059C17.691 8.9079 17.9958 9.19793 18.1179 9.63022C18.2953 10.2583 18.1015 11.0955 17.4022 11.6004C16.9997 11.8907 16.5443 12.0428 16.0597 12.1049C15.2972 12.2028 14.5488 12.128 13.8201 11.8778C13.7796 11.864 13.7405 11.8458 13.689 11.8247C13.7832 11.3831 13.8765 10.9447 13.9723 10.4964C14.0339 10.5231 14.0869 10.5444 14.1382 10.5689C14.5891 10.7827 15.0645 10.8851 15.5627 10.8793C15.7913 10.8767 16.0153 10.8414 16.2216 10.7324C16.5984 10.5335 16.6482 10.1472 16.3163 9.88453C16.1539 9.75579 15.9674 9.65469 15.7825 9.55848C15.4747 9.39834 15.1705 9.23601 14.9029 9.01105C14.1395 8.36986 14.237 7.47354 14.6501 6.87043C14.99 6.37462 15.4898 6.11223 16.0577 5.96874C16.2387 5.92283 16.4268 5.90595 16.6111 5.87489C16.6386 5.87024 16.6651 5.86078 16.6921 5.85353C16.8943 5.85353 17.0966 5.85353 17.2987 5.85353Z" fill="#0052CC"/>
<path d="M23.7439 12.0441C23.251 12.0441 22.7787 12.0441 22.2938 12.0441C22.248 11.8275 22.2005 11.6108 22.1563 11.3933C22.1048 11.138 22.106 11.1379 21.8416 11.1379C21.2894 11.1379 20.7373 11.1394 20.1848 11.1363C20.1079 11.1359 20.0705 11.158 20.0453 11.233C19.9622 11.4786 19.8732 11.7223 19.7807 11.9646C19.7676 11.9988 19.7216 12.0441 19.6903 12.0445C19.1673 12.0494 18.6442 12.0479 18.1096 12.0479C18.1231 12.0098 18.1318 11.9797 18.1439 11.9509C18.9131 10.1135 19.6826 8.276 20.4526 6.43861C20.5831 6.12714 20.8244 5.9666 21.1595 5.96612C21.5924 5.96571 22.0253 5.96595 22.474 5.96595C22.8968 7.98949 23.3191 10.0107 23.7439 12.0441ZM21.843 9.89651C21.6843 9.13595 21.529 8.39056 21.3736 7.64549C21.3654 7.64444 21.3574 7.64337 21.3493 7.64223C21.0786 8.38958 20.8081 9.13661 20.5327 9.89651C20.9766 9.89651 21.3973 9.89651 21.843 9.89651Z" fill="#0052CC"/>
<path d="M11.0317 12.0494C11.468 10.0117 11.9007 7.9904 12.3333 5.97046C12.8595 5.97046 13.3748 5.97046 13.9032 5.97046C13.8612 6.17136 13.8216 6.36476 13.7805 6.55775C13.3994 8.3406 13.017 10.1231 12.6398 11.9069C12.6156 12.0211 12.5749 12.0545 12.4584 12.0524C12.0289 12.0445 11.5993 12.0494 11.1697 12.0494C11.1303 12.0494 11.0911 12.0494 11.0317 12.0494Z" fill="#0052CC"/>
<path d="M24.998 17.1995H3.00217C2.08735 17.1995 1.3457 16.4579 1.3457 15.5431V2.45694C1.3457 1.54212 2.08735 0.800476 3.00217 0.800476H24.998C25.9129 0.800476 26.6545 1.54212 26.6545 2.45694V15.5431C26.6545 16.4579 25.9129 17.1995 24.998 17.1995Z" stroke="#303030" stroke-width="0.8" stroke-miterlimit="10" stroke-linecap="round" stroke-linejoin="round"/>
</svg>
