<svg width="26" height="26" viewBox="0 0 26 26" fill="none" xmlns="http://www.w3.org/2000/svg">
<path d="M12.1 1.5L11.475 2.125C10.6502 1.66504 9.73954 1.37994 8.79972 1.28746C7.8599 1.19498 6.91111 1.29712 6.0125 1.5875L5.9125 1.5C5.31715 0.967807 4.54065 0.683719 3.74241 0.706058C2.94418 0.728398 2.18478 1.05547 1.62013 1.62013C1.05547 2.18478 0.728398 2.94418 0.706058 3.74241C0.683719 4.54065 0.967807 5.31715 1.5 5.9125L1.5875 6.0125C1.29712 6.9111 1.19498 7.8599 1.28746 8.79972C1.37994 9.73954 1.66504 10.6502 2.125 11.475L1.5 12.1C1.14887 12.4516 0.951649 12.9281 0.951649 13.425C0.951649 13.9219 1.14887 14.3984 1.5 14.75L3.2625 16.525C3.61406 16.8761 4.09062 17.0733 4.5875 17.0733C5.08438 17.0733 5.56094 16.8761 5.9125 16.525L6.35 16.075L15.2 24.9125C15.5516 25.2636 16.0281 25.4608 16.525 25.4608C17.0219 25.4608 17.4984 25.2636 17.85 24.9125L24.9125 17.85C25.2636 17.4984 25.4608 17.0219 25.4608 16.525C25.4608 16.0281 25.2636 15.5516 24.9125 15.2L16.075 6.35L16.525 5.9125C16.8761 5.56094 17.0734 5.08438 17.0734 4.5875C17.0734 4.09062 16.8761 3.61406 16.525 3.2625L14.75 1.5C14.3984 1.14887 13.9219 0.951649 13.425 0.951649C12.9281 0.951649 12.4516 1.14887 12.1 1.5ZM15.2 4.5875L4.5875 15.2L2.825 13.425L13.425 2.825L15.2 4.5875ZM16.525 12.5375L12.5375 16.525L11.2125 15.2L15.2 11.2125L16.525 12.5375ZM19.175 15.2L15.2 19.175L13.8625 17.85L17.85 13.8625L19.175 15.2Z" fill="white"/>
</svg>
