<svg width="22" height="25" viewBox="0 0 22 25" fill="none" xmlns="http://www.w3.org/2000/svg">
<path d="M6.69743 12.69C9.67563 12.69 12.0899 10.2757 12.0899 7.2975C12.0899 4.3193 9.67563 1.905 6.69743 1.905C3.71924 1.905 1.30493 4.3193 1.30493 7.2975C1.30493 10.2757 3.71924 12.69 6.69743 12.69Z" fill="white" stroke="white" stroke-width="2.36" stroke-miterlimit="22.9256"/>
<path d="M11.5645 11.1212L10.312 12.0174L14.6849 18.1289L15.9374 17.2328L11.5645 11.1212Z" fill="white" stroke="white" stroke-width="1.2686" stroke-miterlimit="22.9256"/>
<path d="M16.935 23.1C18.712 23.1 20.1525 21.6024 20.1525 19.755C20.1525 17.9076 18.712 16.41 16.935 16.41C15.1581 16.41 13.7175 17.9076 13.7175 19.755C13.7175 21.6024 15.1581 23.1 16.935 23.1Z" stroke="white" stroke-width="2.36" stroke-miterlimit="22.9256"/>
</svg>
