<svg width="30" height="27" viewBox="0 0 30 27" fill="none" xmlns="http://www.w3.org/2000/svg">
<path d="M12.1407 0.258412C10.9981 0.643373 10.3477 1.91955 10.7285 3.03224C10.8282 3.32228 10.9102 3.44357 11.1797 3.69142C11.4492 3.94455 11.5782 4.0131 11.8594 4.08693C12.9317 4.36642 14.0918 3.62287 14.42 2.45216C14.5196 2.10939 14.461 1.39748 14.3145 1.10216C14.1563 0.785756 13.8106 0.442983 13.5117 0.305873C13.166 0.142397 12.545 0.126576 12.1407 0.258412Z" fill="white"/>
<path d="M7.67581 0.959777C7.16605 1.27091 6.96683 1.88263 7.17191 2.49962C7.47073 3.39083 8.49027 3.55431 8.96488 2.79493C9.09378 2.58927 9.11136 2.48907 9.11136 2.08302C9.11136 1.66114 9.09378 1.58204 8.9473 1.36056C8.63675 0.880675 8.08597 0.706651 7.67581 0.959777Z" fill="white"/>
<path d="M4.68759 1.51347C4.06064 1.73495 4.04306 2.83183 4.65243 3.40136C4.98056 3.70722 5.29696 3.79687 5.60165 3.65976C5.97079 3.49101 6.06454 3.32753 6.06454 2.83183C6.06454 2.45214 6.0411 2.36776 5.88876 2.11464C5.66024 1.74023 5.35556 1.52402 5.02743 1.49765C4.88681 1.4871 4.73446 1.49237 4.68759 1.51347Z" fill="white"/>
<path d="M2.13282 2.94786C1.88673 3.08496 1.72853 3.44356 1.78126 3.75996C1.84571 4.1502 2.14454 4.53516 2.51954 4.70918C2.91798 4.89375 3.21095 4.88321 3.4629 4.66172C3.71485 4.44551 3.78517 4.18184 3.69728 3.82325C3.51564 3.10606 2.68946 2.642 2.13282 2.94786Z" fill="white"/>
<path d="M6.70909 4.23984C4.88682 4.50351 3.26378 5.56875 2.37315 7.08223C1.75206 8.13691 1.54112 9.02812 1.59971 10.3887C1.67588 12.1131 2.05674 13.9588 2.66612 15.5566C2.94737 16.2844 3.60362 17.4814 4.01963 18.0088C4.85167 19.074 5.90635 19.7701 7.07237 20.018C7.68175 20.1498 8.66026 20.1393 9.17003 19.9969C10.4122 19.6541 11.0978 18.5994 10.9454 17.2652C10.8692 16.585 10.6349 16.1895 9.70323 15.1717C9.0587 14.4598 8.78917 13.8533 8.78917 13.1098C8.78917 12.3135 9.10557 11.8283 10.4298 10.568C11.4728 9.58184 11.8302 9.17578 12.0939 8.6748C12.3751 8.14746 12.4454 7.83105 12.4044 7.20352C12.3107 5.58457 11.2501 4.61426 9.2462 4.30312C8.50792 4.19238 7.25987 4.16074 6.70909 4.23984Z" fill="white"/>
<path d="M0.556693 4.95177C0.328177 5.04142 0.216849 5.21544 0.193411 5.50021C0.146536 6.04864 0.709036 6.60236 1.31255 6.60236C1.62896 6.60236 1.78716 6.51271 1.91021 6.28068C2.17974 5.76915 1.60552 4.97814 0.925833 4.9254C0.785208 4.91486 0.621146 4.9254 0.556693 4.95177Z" fill="white"/>
<path d="M16.7754 6.98203C15.9727 7.21933 15.5156 7.83633 15.5156 8.70117C15.5156 9.59238 16.0137 10.357 16.875 10.7631C17.0977 10.8686 17.2266 10.8896 17.666 10.8896C18.1348 10.8896 18.2227 10.8738 18.4688 10.7473C19.1367 10.3887 19.4941 9.61875 19.3477 8.83301C19.2656 8.36367 18.9961 7.86797 18.6563 7.54101C18.1523 7.05586 17.3438 6.81328 16.7754 6.98203Z" fill="white"/>
<path d="M21.6915 7.64649C21.4219 7.7045 21.0586 8.03673 20.9473 8.32149C20.8067 8.70645 20.8301 9.20743 21.0118 9.53438C21.1934 9.86134 21.4278 10.0248 21.7618 10.0565C22.6407 10.1461 23.209 8.95958 22.6934 8.11055C22.4649 7.73087 22.0958 7.56212 21.6915 7.64649Z" fill="white"/>
<path d="M24.6094 8.3795C24.375 8.49024 24.0528 8.88575 23.9649 9.16524C23.8829 9.43946 23.8946 9.88771 23.9883 10.0934C24.3106 10.7947 25.3536 10.5363 25.6993 9.66622C25.7989 9.40255 25.8047 8.90157 25.6993 8.68009C25.5235 8.3004 25.043 8.16856 24.6094 8.3795Z" fill="white"/>
<path d="M27.041 9.70841C26.625 9.92462 26.25 10.452 26.25 10.8264C26.25 11.0953 26.373 11.3484 26.5781 11.4908C26.7188 11.591 26.8008 11.6068 27.0762 11.591C27.9902 11.533 28.5586 10.4256 27.9844 9.82442C27.873 9.70841 27.791 9.68204 27.5039 9.66622C27.3105 9.65567 27.1055 9.67676 27.041 9.70841Z" fill="white"/>
<path d="M21.1699 11.0215C19.3301 11.2324 18.1816 11.9285 17.7422 13.1098C17.5488 13.6266 17.5488 14.6971 17.7363 15.1453C18.0117 15.7992 18.3574 16.2158 19.7344 17.5236C20.1563 17.9191 20.6074 18.3938 20.7422 18.5783C21.1816 19.1848 21.2988 19.7807 21.1231 20.5295C21.0059 21.0305 20.707 21.5051 20.0684 22.2012C19.2363 23.1135 19.0254 23.5617 19.0313 24.4424C19.0313 25.033 19.1836 25.4971 19.5293 25.9506C19.9863 26.5623 20.625 26.8418 21.6563 26.884C24.4102 26.9895 26.4024 25.1912 27.6152 21.5156C28.1777 19.8229 28.5234 17.3232 28.3711 16.084C28.1484 14.3121 27.1465 12.7775 25.5879 11.8441C25.0137 11.5014 24.6094 11.3326 23.9121 11.148C23.4844 11.032 23.2676 11.0057 22.5 10.9951C22.002 10.9846 21.4043 10.9951 21.1699 11.0215Z" fill="white"/>
<path d="M28.7403 11.7914C28.0548 12.1078 27.7852 12.8883 28.2423 13.2469C28.8106 13.7109 29.9005 13.0043 29.8067 12.2396C29.7481 11.7861 29.2267 11.5646 28.7403 11.7914Z" fill="white"/>
</svg>
