<svg width="25" height="25" viewBox="0 0 25 25" fill="none" xmlns="http://www.w3.org/2000/svg">
<path d="M24.6831 3.85713C24.4351 3.57271 24.0779 3.40908 23.7013 3.40908H5.75455L5.5013 1.89739C5.3974 1.27142 4.85584 0.811676 4.22078 0.811676H1.2987C0.580519 0.811676 0 1.3922 0 2.11038C0 2.82856 0.580519 3.40908 1.2987 3.40908H3.12078L5.53636 17.9078C5.54675 17.9662 5.57662 18.0143 5.5948 18.0688C5.61558 18.1376 5.63247 18.2026 5.66493 18.2649C5.70649 18.3506 5.76234 18.4234 5.82078 18.4974C5.86104 18.548 5.8974 18.5987 5.94416 18.6428C6.01948 18.713 6.10649 18.7623 6.1948 18.8117C6.24416 18.8389 6.28701 18.8753 6.34026 18.8961C6.49091 18.9571 6.64935 18.9935 6.81688 18.9935C6.81818 18.9935 21.1039 18.9935 21.1039 18.9935C21.8221 18.9935 22.4026 18.413 22.4026 17.6948C22.4026 16.9766 21.8221 16.3961 21.1039 16.3961H7.91818L7.7026 15.0974H22.4026C23.0493 15.0974 23.5974 14.6221 23.6883 13.9831L24.987 4.8922C25.0403 4.51817 24.9286 4.14025 24.6831 3.85713ZM22.2039 6.00648L21.8338 8.60388H17.2078V6.00648H22.2039ZM15.9091 6.00648V8.60388H12.013V6.00648H15.9091ZM15.9091 9.90258V12.5H12.013V9.90258H15.9091ZM10.7143 6.00648V8.60388H6.81818C6.74935 8.60388 6.68701 8.62336 6.62597 8.64284L6.18701 6.00648H10.7143ZM6.83636 9.90258H10.7143V12.5H7.26883L6.83636 9.90258ZM17.2078 12.5V9.90258H21.6467L21.2766 12.5H17.2078Z" fill="black"/>
<path d="M8.76629 24.1883C9.84217 24.1883 10.7143 23.3161 10.7143 22.2403C10.7143 21.1644 9.84217 20.2922 8.76629 20.2922C7.69041 20.2922 6.81824 21.1644 6.81824 22.2403C6.81824 23.3161 7.69041 24.1883 8.76629 24.1883Z" fill="black"/>
<path d="M20.4545 24.1883C21.5304 24.1883 22.4026 23.3161 22.4026 22.2403C22.4026 21.1644 21.5304 20.2922 20.4545 20.2922C19.3786 20.2922 18.5065 21.1644 18.5065 22.2403C18.5065 23.3161 19.3786 24.1883 20.4545 24.1883Z" fill="black"/>
</svg>
