<svg width="24" height="24" viewBox="0 0 24 24" fill="none" xmlns="http://www.w3.org/2000/svg">
<path d="M0 7.28571C0 7.84285 0.4 8.21428 1 8.21428C2.3 8.21428 3.4 9.04999 3.7 10.1643L4 11.1857C4 11.2786 4.1 11.3714 4.1 11.4643C5 15.8286 10.1 19.1714 15.8 18.2428C19.8 17.5928 23 14.9928 23.7 11.65C23.9 11.1857 24 10.6286 24 10.0714L17 10.1643C16.7 10.1643 16.4 9.88571 16.3 9.60713C16.3 9.23571 16.5 8.95714 16.9 8.95714L23.8 8.30714C23.2 4.31428 19.5 0.785706 14 0.785706L12.8 10.0714H5.8L5.7 9.79285C5.2 7.74999 3.2 6.35713 1 6.35713C0.5 6.35713 0 6.72856 0 7.28571ZM8.5 19.3571C9.9 19.3571 11 20.3786 11 21.6786C11 22.9786 9.9 24 8.5 24C7.1 24 6 22.9786 6 21.6786C6 20.3786 7.1 19.3571 8.5 19.3571ZM19.5 19.3571C20.9 19.3571 22 20.3786 22 21.6786C22 22.9786 20.9 24 19.5 24C18.1 24 17 22.9786 17 21.6786C17 20.3786 18.1 19.3571 19.5 19.3571Z" fill="white"/>
</svg>
