<svg width="29" height="26" viewBox="0 0 29 26" fill="none" xmlns="http://www.w3.org/2000/svg">
<path d="M14.0907 3.89687L14.4602 4.33222L14.843 3.90844C16.608 1.95408 18.9165 0.5 21.75 0.5C25.7152 0.5 28.5 3.66884 28.5 7.11874C28.5 8.9635 27.8558 10.2876 26.7869 11.566L15.5204 24.1137C15.2155 24.3793 14.9964 24.5562 14.8179 24.6682C14.6397 24.7801 14.5453 24.7988 14.4878 24.7988C14.4303 24.7988 14.3359 24.7801 14.1576 24.6682C13.9792 24.5562 13.7601 24.3793 13.4553 24.1139L2.22718 11.5808C1.28678 10.258 0.5 8.93641 0.5 7.11874C0.5 3.66884 3.28473 0.5 7.25 0.5C10.0895 0.5 12.3884 1.89143 14.0907 3.89687Z" stroke="#999999"/>
</svg>
