<svg width="22" height="22" viewBox="0 0 22 22" fill="none" xmlns="http://www.w3.org/2000/svg">
<path d="M21.6483 10.8947C21.6483 12.3771 21.6525 13.8594 21.6483 15.3459C21.6398 17.499 20.6157 19.0932 18.7876 20.2194C17.717 20.8736 16.5278 21.1635 15.2668 21.1635C12.5077 21.1635 9.75278 21.1759 6.99366 21.1594C5.07667 21.1469 3.42628 20.4844 2.11866 19.0932C1.31039 18.2319 0.827971 17.2175 0.688323 16.0457C0.6587 15.7972 0.654469 15.5529 0.654469 15.3045C0.654469 12.3522 0.650237 9.39998 0.654469 6.44771C0.667164 4.29045 1.69125 2.69631 3.51938 1.57006C4.59848 0.911696 5.79184 0.625993 7.06137 0.625993C9.81202 0.625993 12.5627 0.613571 15.3133 0.630134C17.2388 0.642555 18.8934 1.3092 20.201 2.70873C21.0008 3.56584 21.479 4.58029 21.6144 5.73967C21.6694 6.19513 21.6441 6.6506 21.6483 7.10193C21.6525 8.36896 21.6483 9.63185 21.6483 10.8947ZM2.22446 10.8947C2.22446 12.4144 2.22022 13.9298 2.22446 15.4494C2.22869 16.4929 2.61801 17.3914 3.34588 18.1367C4.32341 19.1346 5.54216 19.619 6.94288 19.6273C9.72316 19.6439 12.4992 19.6315 15.2795 19.6315C16.1766 19.6315 17.0314 19.441 17.8101 19.0021C19.2658 18.1864 20.0868 16.9856 20.0868 15.3045C20.0868 12.315 20.0868 9.32959 20.0868 6.34006C20.0868 5.3049 19.7017 4.41052 18.978 3.66935C18.009 2.66732 16.786 2.17459 15.3895 2.16631C12.5796 2.1456 9.77394 2.15802 6.96404 2.15802C6.08806 2.15802 5.25864 2.36091 4.49692 2.78326C3.04542 3.6031 2.22022 4.80388 2.22446 6.48498C2.22446 7.9549 2.22446 9.42482 2.22446 10.8947Z" fill="white"/>
<path d="M11.1662 15.2838C8.43246 15.2838 6.2404 13.1472 6.24464 10.4807C6.24887 7.88451 8.47055 5.75623 11.1831 5.76037C13.9084 5.76037 16.1089 7.90107 16.1047 10.5428C16.1004 13.1597 13.8872 15.2838 11.1662 15.2838ZM11.1662 13.7518C13.0239 13.7518 14.5389 12.3067 14.5389 10.5304C14.5389 8.74576 13.0366 7.2924 11.1831 7.2924C9.32536 7.2924 7.81039 8.73748 7.81039 10.5138C7.81039 12.2984 9.31267 13.7518 11.1662 13.7518Z" fill="white"/>
<path d="M15.6392 5.37114C15.6392 4.78317 16.1004 4.31114 16.6759 4.31114C17.2515 4.31114 17.7127 4.78731 17.7127 5.37114C17.7127 5.94669 17.2515 6.41872 16.6844 6.42286C16.1089 6.427 15.6392 5.95911 15.6392 5.37114Z" fill="white"/>
</svg>
