<svg width="26" height="24" viewBox="0 0 26 24" fill="none" xmlns="http://www.w3.org/2000/svg">
<path d="M7.60942 0.181776C5.93363 0.503376 5.52348 0.624557 2.95121 1.57071C1.5977 2.06943 0.431681 2.52153 0.361369 2.57746C0.0566813 2.81516 0.0625407 2.82915 1.25785 4.70748C1.86723 5.66295 2.42973 6.49259 2.5059 6.55318C2.59965 6.62775 2.71098 6.66504 2.84574 6.66504C2.99223 6.66504 4.73246 6.28751 5.3184 6.12438C5.38871 6.10574 5.39457 7.07054 5.37699 12.5843L5.35356 19.0629L5.50004 19.1748C5.59965 19.2587 5.78129 19.3146 6.08598 19.3659C7.22856 19.557 8.20707 20.0091 9.22074 20.8108C10.252 21.6264 11.0899 22.5679 11.5352 23.4069C11.6348 23.5933 11.7579 23.7751 11.8106 23.803C11.9278 23.8776 14.002 23.8869 14.1661 23.8217C14.2246 23.7937 14.3418 23.6353 14.4356 23.4581C14.8692 22.6192 15.7539 21.6218 16.7793 20.8108C17.793 20.0091 18.7715 19.557 19.9141 19.3659C20.2188 19.3146 20.4004 19.2587 20.5 19.1748L20.6465 19.0629L20.6231 12.5843C20.6055 7.07054 20.6114 6.10574 20.6817 6.12438C21.2676 6.28751 23.0079 6.66504 23.1543 6.66504C23.2891 6.66504 23.4004 6.62775 23.4942 6.55318C23.5704 6.49259 24.1329 5.66295 24.7422 4.70748C25.9375 2.82915 25.9434 2.81516 25.6387 2.57746C25.5684 2.52153 24.4141 2.06943 23.0782 1.58004C20.4649 0.619898 19.8379 0.438124 18.1329 0.135168L17.2657 -0.0186405L17.0547 0.0745754C16.8731 0.153811 16.8262 0.214401 16.668 0.582611C16.4161 1.16056 16.2227 1.40758 15.6719 1.84104C14.875 2.47492 14.1192 2.72195 13 2.72195C11.8809 2.72195 11.125 2.47492 10.3282 1.84104C9.80082 1.42623 9.51371 1.05336 9.30277 0.517359C9.1973 0.242367 9.13285 0.158472 8.99223 0.0885582C8.75199 -0.0279636 8.67582 -0.0233021 7.60942 0.181776Z" fill="white"/>
</svg>
