<svg width="18" height="16" viewBox="0 0 18 16" fill="none" xmlns="http://www.w3.org/2000/svg">
<path d="M7.13506 0.125C3.35006 0.125 0.252563 2.90825 0.252563 6.3125C0.252563 9.71675 3.35006 12.5 7.13506 12.5C10.9201 12.5 14.0163 9.71675 14.0163 6.3125C14.0163 2.90825 10.9201 0.125 7.13506 0.125ZM7.13506 2.375C7.71068 2.37247 8.28115 2.47255 8.81357 2.66946C9.34599 2.86638 9.82981 3.15623 10.2371 3.52229C10.6444 3.88835 10.9672 4.32337 11.1867 4.80227C11.4063 5.28116 11.5183 5.79445 11.5163 6.3125C11.5163 8.4995 9.57006 10.25 7.13506 10.25C6.55935 10.2527 5.98874 10.1527 5.45618 9.95586C4.92361 9.75902 4.43964 9.46919 4.03219 9.10311C3.62475 8.73704 3.30189 8.30196 3.08226 7.82299C2.86263 7.34402 2.75058 6.83065 2.75256 6.3125C2.75256 4.1255 4.69881 2.375 7.13506 2.375Z" fill="#474747"/>
<path d="M11.5001 9.11374C11.2515 9.11398 11.0086 9.18094 10.8025 9.30605C10.5964 9.43117 10.4364 9.60876 10.343 9.81612C10.2496 10.0235 10.2271 10.2512 10.2782 10.4702C10.3293 10.6891 10.4519 10.8894 10.6301 11.0454L15.6351 15.5454C15.7504 15.6528 15.8884 15.7385 16.0409 15.7975C16.1934 15.8564 16.3574 15.8875 16.5234 15.8888C16.6893 15.8901 16.8539 15.8616 17.0076 15.805C17.1612 15.7485 17.3008 15.6649 17.4181 15.5593C17.5355 15.4537 17.6283 15.3281 17.6912 15.1898C17.754 15.0516 17.7856 14.9034 17.7842 14.754C17.7827 14.6047 17.7483 14.457 17.6828 14.3198C17.6172 14.1825 17.522 14.0584 17.4026 13.9546L12.3989 9.45462C12.2819 9.34636 12.142 9.26038 11.9874 9.20182C11.8328 9.14326 11.6666 9.1133 11.4989 9.11374H11.5001Z" fill="#474747"/>
</svg>
